<svg width="37" height="34" viewBox="0 0 37 34" fill="none" xmlns="http://www.w3.org/2000/svg">
<path fill-rule="evenodd" clip-rule="evenodd" d="M21.4839 32.5012V26.3963C21.4839 25.5683 22.145 24.8975 22.9605 24.8975C25.8703 24.8975 27.4531 21.8677 27.6725 15.8878H22.9605C22.145 15.8878 21.4839 15.2163 21.4839 14.3887L21.4839 1.4985C21.4839 0.670963 22.145 0 22.9605 0H35.5236C36.3395 0 37 0.67149 37 1.4985L37 14.3887C37 17.2553 36.7157 19.8859 36.1552 22.2083C35.5804 24.5896 34.6981 26.6716 33.5335 28.3968C32.3351 30.1698 30.8361 31.5611 29.0778 32.5303C27.3077 33.5054 25.2492 34 22.96 34C22.145 34 21.4839 33.3291 21.4839 32.5012ZM1.47673 24.8975C0.661594 24.8975 -3.43323e-05 25.569 -3.43323e-05 26.3963V32.5012C-3.43323e-05 33.3291 0.661491 34 1.47673 34C3.76492 34 5.82373 33.5053 7.59327 32.5303C9.35187 31.5611 10.8517 30.1698 12.0502 28.3968C13.2144 26.6716 14.0967 24.5895 14.6716 22.2077C15.2318 19.8845 15.5161 17.2539 15.5161 14.3887V1.4985C15.5161 0.670963 14.8548 0 14.0394 0L1.47684 0C0.661697 0 0.000686646 0.67149 0.000686646 1.4985L0.000686646 14.3888C0.000686646 15.2163 0.661594 15.8879 1.47684 15.8879H6.12156C5.90549 21.8677 4.34583 24.8975 1.47673 24.8975Z" fill="white"/>
</svg>
