<svg width="25" height="22" viewBox="0 0 25 22" fill="none" xmlns="http://www.w3.org/2000/svg">
<g clip-path="url(#clip0)">
<path fill-rule="evenodd" clip-rule="evenodd" d="M14.4355 21.0302V17.08C14.4355 16.5442 14.8643 16.1101 15.3933 16.1101C17.2808 16.1101 18.3074 14.1497 18.4497 10.2803L15.3933 10.2803C14.8643 10.2803 14.4355 9.84586 14.4355 9.31032V0.96962C14.4355 0.434153 14.8643 0 15.3933 0H23.5424C24.0716 0 24.5 0.434492 24.5 0.96962L24.5 9.31032C24.5 11.1652 24.3156 12.8674 23.952 14.3701C23.5792 15.9109 23.0069 17.2581 22.2514 18.3744C21.4741 19.5216 20.5018 20.4219 19.3613 21.049C18.2131 21.68 16.8778 22 15.393 22C14.8643 22 14.4355 21.5659 14.4355 21.0302ZM1.4579 16.1101C0.929165 16.1101 0.5 16.5446 0.5 17.08V21.0302C0.5 21.5659 0.929098 22 1.4579 22C2.94213 22 4.27757 21.6799 5.42538 21.049C6.5661 20.4219 7.53893 19.5216 8.31637 18.3744C9.07151 17.2581 9.64384 15.9108 10.0168 14.3697C10.3801 12.8665 10.5645 11.1643 10.5645 9.31032V0.96962C10.5645 0.434153 10.1356 0 9.60668 0H1.45797C0.929232 0 0.500469 0.434492 0.500469 0.96962L0.500469 9.31039C0.500469 9.84586 0.929165 10.2804 1.45797 10.2804L4.47076 10.2804C4.33061 14.1497 3.31894 16.1101 1.4579 16.1101Z" fill="#D4B5B0"/>
</g>
<defs>
<clipPath id="clip0">
<rect width="24" height="22" fill="white" transform="translate(0.5)"/>
</clipPath>
</defs>
</svg>
