<svg width="869" height="676" viewBox="0 0 869 676" fill="none" xmlns="http://www.w3.org/2000/svg">
<g clip-path="url(#clip0)">
<path opacity="0.4" d="M852.193 179.862C843.589 159.888 831.963 141.357 817.724 124.92L339.497 120.207L733.239 64.8843C707.803 54.7509 680.723 49.3761 653.347 49.027C615.681 18.9094 569.304 1.75951 521.112 0.128192C472.92 -1.50312 425.49 12.4713 385.875 39.9729C354.217 23.6922 319.122 15.2315 283.526 15.2985C177.268 15.2985 88.7229 88.9156 68.8619 186.547L852.193 179.862Z" fill="#EEDAD1"/>
<path opacity="0.4" d="M869.008 261.738C869.031 235.264 863.971 209.031 854.104 184.466L25.2744 271.495C16.7275 286.959 10.1897 303.452 5.81949 320.573L262.48 358.854L-0.0423584 386.778C7.85803 497.296 102.57 584.571 218.267 584.571C276.505 584.571 329.431 562.452 368.637 526.388C407.978 563.137 461.403 585.73 520.266 585.73C607.611 585.73 682.994 535.983 718.098 464.05C788.533 441.694 843.243 385.542 861.971 315.301L537.429 264.903H869.008C868.992 263.845 869.008 262.796 869.008 261.738Z" fill="#EEDAD1"/>
<path d="M242.493 676C348.538 676 434.504 661.903 434.504 644.513C434.504 627.124 348.538 613.027 242.493 613.027C136.448 613.027 50.4812 627.124 50.4812 644.513C50.4812 661.903 136.448 676 242.493 676Z" fill="#383E56"/>
<path d="M441.077 441.686C432.44 443.852 423.576 439.639 423.576 439.639C423.576 439.639 416.014 430.881 409.636 429.696C403.258 428.511 400.788 438.877 396.998 441.542C394.376 443.413 375.463 442.076 364.01 441.077L362.039 440.899C361.844 440.755 361.65 440.603 361.438 440.468C361.438 440.468 350.442 437.083 348.15 434.088C345.857 431.092 330.539 425.55 325.785 425.871C321.031 426.193 306.981 426.954 306.981 426.954C306.981 426.954 301.475 420.684 298.988 421.336C296.501 421.987 287.856 421.285 287.856 421.285C287.856 421.285 285.48 415.176 283.103 406.418C281.995 402.331 278.307 399.462 274.695 397.575C277.943 386.575 272.157 355.199 254.191 349.064C250.275 347.727 248.27 343.285 244.937 340.848C241.951 338.673 237.062 333.545 239.456 324.28C242.84 311.308 251.23 290.881 251.23 290.881L257.481 278.392C256.898 279.276 256.236 280.106 255.502 280.871C256.348 279.788 257.194 278.722 257.921 277.825C264.159 280.977 270.963 282.852 277.934 283.342C284.989 286.193 292.035 288.706 294.776 288.613C301.044 288.393 317.03 296.398 317.03 296.398C317.03 296.398 355.492 307.398 363.485 308.287C371.479 309.175 375.37 298.776 375.37 298.776C375.37 298.776 379.523 278.273 372.147 272.841C364.771 267.408 360.482 292.303 360.482 292.303L310.162 274.161L307.058 272.528C309.468 269.976 311.381 266.998 312.7 263.744C313.478 261.807 314.188 259.59 316.041 258.625C316.539 258.377 317.078 258.22 317.631 258.16C318.09 258.13 318.551 258.13 319.01 258.16C327.739 258.693 335.242 265.564 343.988 265.597C344.31 265.597 344.631 265.597 344.952 265.597C346.62 265.593 348.248 265.092 349.63 264.159C350.41 263.524 351.052 262.734 351.514 261.841C351.977 260.947 352.251 259.968 352.32 258.963C352.192 259.236 352.051 259.501 351.897 259.759C352.125 258.514 352.125 257.238 351.897 255.993C351.356 253.023 349.808 250.358 348.42 247.675C348.028 247.05 347.807 246.332 347.778 245.594C347.817 245.209 347.934 244.835 348.122 244.496C348.309 244.158 348.563 243.86 348.869 243.622C348.882 243.702 348.899 243.781 348.92 243.859C349.579 243.239 350.312 242.702 351.102 242.26C353.24 240.857 355.067 239.03 356.469 236.892C357.872 234.754 358.821 232.35 359.256 229.83C359.045 230.456 358.791 231.074 358.52 231.683C359.821 227.387 359.505 222.764 357.632 218.686C357.147 217.525 356.372 216.508 355.382 215.732C352.227 213.515 347.989 215.876 344.14 216.13C340.757 216.35 337.475 214.835 334.421 213.304C329.211 210.689 324.026 207.863 319.686 203.996C314.755 199.571 311.092 193.927 306.643 189.027C302.194 184.128 296.484 179.762 289.861 179.271C277.825 178.34 266.473 190.271 255.028 186.379C249.446 184.492 245.775 179.33 241.892 174.896C238.01 170.462 232.672 166.206 226.853 167.162C222.809 167.839 219.308 170.978 215.214 170.86C213.074 170.792 211.086 169.836 209.056 169.167C204.141 167.517 197.408 168.321 195.657 173.212C195.313 174.208 195.192 175.268 195.301 176.316C195.411 177.364 195.749 178.376 196.292 179.279C196.033 179.643 195.801 180.024 195.598 180.422C195.177 181.197 195.031 182.091 195.183 182.96C191.705 186.084 189.127 190.084 187.719 194.543C186.311 199.002 186.124 203.757 187.178 208.313C188.232 212.869 190.488 217.059 193.711 220.446C196.934 223.833 201.006 226.293 205.503 227.57C205.664 228.188 205.824 228.806 205.977 229.432C207.618 236.345 208.472 244.13 206.044 249.376C205.892 249.698 205.731 250.011 205.554 250.316L205.342 250.409L205.435 250.502L205.342 250.409L205.038 250.096L203.194 248.166C203.092 246.152 201.959 240.754 194.075 230.735C183.697 217.543 181.751 195.712 181.751 195.712C181.751 195.712 179.163 184.475 181.751 181.234C184.339 177.993 188.67 142.31 188.67 142.31L195.826 122.222C195.826 122.222 230.617 86.767 216.127 82.4515C206.29 79.5153 194.558 94.6449 188.044 104.647C184.845 109.558 182.777 115.119 181.988 120.927L162.322 174.752C162.322 174.752 160.376 181.242 162.322 192.48C164.267 203.717 168.589 223.61 168.589 223.61L179.586 251.492C179.586 251.492 183.637 263.533 183.282 268.762C182.8 269.075 181.108 272.426 179.645 275.472L178.571 277.165L178.495 277.85C177.776 279.382 177.276 280.482 177.276 280.482C177.276 280.482 171.152 298.564 176.27 309.658C181.387 320.751 181.59 325.896 181.59 325.896L185.405 342.329L186.995 356.714L200.715 390.654L213.353 408.702C213.353 408.702 212.168 421.996 209.572 423.832C206.975 425.668 208.167 435.179 208.167 435.179L206.543 460.141C206.543 460.141 201.468 467.605 201.147 479.705C200.825 491.805 198.981 495.275 198.981 495.275C198.981 495.275 198.136 505.429 200.495 510.083C202.855 514.737 196.714 519.594 196.714 519.594L201.984 537.693L199.929 560.608C199.929 560.608 200.885 560.87 202.466 561.268L202.145 562.909L193.551 606.318C193.551 606.318 188.907 618.215 188.696 621.016L173.673 648.153C173.673 648.153 161.137 660.583 167.084 661.768C173.03 662.952 190.32 652.257 190.32 652.257C190.32 652.257 204.581 636.907 210.198 635.511C215.814 634.115 222.04 630.095 220.246 624.265C218.453 618.435 214.325 609.567 218.301 600.158C220.839 594.235 226.235 578.157 229.94 566.937C230.143 566.319 230.338 565.727 230.532 565.152C231.512 565.063 232.481 564.879 233.425 564.602C242.501 561.792 247.255 563.755 247.255 563.755L263.462 498.152L267.023 465.235L289.717 484.173C294.208 487.919 299.782 490.123 305.62 490.46C314.56 490.984 328.509 492.279 338.608 495.401L342.838 477.784C342.838 477.784 354.934 478.224 357.53 474.112C358.588 472.419 359.628 470.981 360.482 469.881L362.445 469.576L415.98 461.292C425.919 461.292 439.537 454.582 439.537 454.582L447.86 452.966C447.86 452.966 460.278 450.478 461.394 448.422C462.511 446.366 449.73 439.537 441.077 441.686Z" fill="url(#paint0_linear)"/>
<path d="M198.152 177.451C199.844 172.679 206.459 171.875 211.272 173.491C213.251 174.151 215.205 175.091 217.294 175.184C221.304 175.302 224.73 172.222 228.688 171.571C234.381 170.623 239.6 174.786 243.398 179.127C247.196 183.468 250.799 188.519 256.263 190.373C267.454 194.147 278.569 182.503 290.343 183.409C296.806 183.908 302.388 188.164 306.745 192.962C311.101 197.76 314.687 203.277 319.509 207.609C323.738 211.417 328.813 214.184 333.931 216.748C336.917 218.246 340.106 219.726 343.438 219.506C347.211 219.261 351.356 216.968 354.435 219.117C355.404 219.877 356.161 220.874 356.634 222.011C360.423 229.897 357.37 240.398 349.952 245.035C348.657 245.839 347.084 246.728 347.008 248.276C347.032 249 347.248 249.703 347.634 250.316C348.987 252.939 350.51 255.553 351.017 258.456C351.525 261.358 350.84 264.701 348.48 266.461C346.939 267.486 345.109 267.987 343.261 267.891C334.701 267.848 327.358 261.121 318.815 260.605C317.722 260.48 316.615 260.649 315.609 261.096C313.799 262.035 313.072 264.21 312.336 266.105C308.377 275.997 298.548 282.876 288.06 284.763C277.571 286.65 266.617 283.993 257.228 278.95C256.541 278.622 255.91 278.188 255.358 277.664C254.575 276.712 254.022 275.591 253.743 274.389C250.867 265.293 246.976 255.773 239.008 250.519C233.84 247.134 226.827 245.23 224.484 239.518C223.012 235.905 223.934 231.801 223.562 227.909C223.196 224.572 221.896 221.405 219.812 218.774C217.727 216.143 214.943 214.153 211.779 213.033C210.392 212.568 208.87 212.238 207.855 211.18C207.03 210.142 206.504 208.898 206.332 207.584C205.072 201.855 204.234 195.805 202.475 190.212C201.13 185.829 196.351 182.469 198.152 177.451Z" fill="#383E56"/>
<g opacity="0.1">
<path opacity="0.1" d="M349.469 263.828C347.923 264.839 346.094 265.329 344.25 265.224C335.699 265.224 328.357 258.455 319.813 257.947C318.721 257.819 317.614 257.986 316.607 258.43C314.789 259.369 314.07 261.543 313.334 263.439C309.375 273.339 299.538 280.219 289.049 282.106C278.56 283.992 267.607 281.335 258.226 276.292C257.54 275.963 256.909 275.529 256.356 275.006C255.574 274.053 255.021 272.932 254.741 271.731C251.865 262.627 247.974 253.116 240.006 247.852C234.829 244.425 227.817 242.572 225.482 236.852C224.002 233.23 224.924 229.127 224.56 225.243C224.195 221.904 222.895 218.736 220.809 216.104C218.722 213.472 215.936 211.484 212.769 210.367C211.382 209.901 209.859 209.563 208.844 208.514C208.019 207.474 207.495 206.227 207.33 204.909C206.061 199.189 205.232 193.13 203.473 187.546C202.289 183.805 198.558 180.776 198.745 176.782C198.635 176.993 198.539 177.211 198.457 177.434C196.647 182.452 201.434 185.811 202.796 190.126C204.556 195.711 205.385 201.77 206.653 207.49C206.819 208.807 207.342 210.054 208.168 211.095C209.183 212.144 210.705 212.482 212.092 212.948C215.26 214.065 218.048 216.055 220.134 218.688C222.22 221.322 223.52 224.492 223.884 227.832C224.247 231.716 223.325 235.82 224.806 239.441C227.14 245.187 234.153 247.057 239.329 250.442C247.28 255.713 251.171 265.216 254.064 274.321C254.345 275.522 254.898 276.642 255.68 277.595C256.233 278.118 256.863 278.552 257.549 278.882C266.93 283.959 277.85 286.573 288.372 284.695C298.895 282.816 308.673 275.928 312.657 266.028C313.419 264.133 314.121 261.958 315.931 261.019C316.937 260.575 318.044 260.408 319.137 260.537C327.68 261.053 335.022 267.78 343.574 267.814C345.421 267.91 347.25 267.412 348.793 266.392C349.557 265.772 350.186 265.002 350.64 264.128C351.094 263.255 351.364 262.297 351.432 261.315C351.004 262.308 350.329 263.173 349.469 263.828Z" fill="black"/>
<path opacity="0.1" d="M350.941 242.378C349.647 243.224 348.065 244.07 347.989 245.619C347.982 245.929 348.03 246.239 348.133 246.533C348.776 245.924 349.492 245.398 350.264 244.967C352.357 243.596 354.145 241.809 355.517 239.717C356.889 237.625 357.816 235.273 358.241 232.808C356.99 236.748 354.41 240.131 350.941 242.378Z" fill="black"/>
</g>
<path d="M220.289 595.233C216.372 604.439 220.399 613.104 222.192 618.824C223.985 624.544 217.861 628.445 212.363 629.824C206.865 631.203 192.908 646.215 192.908 646.215C192.908 646.215 175.991 656.682 170.171 655.522C164.352 654.363 176.617 642.195 176.617 642.195L191.318 615.642C191.529 612.901 196.072 601.257 196.072 601.257L204.48 558.779L205.596 553.135L235.404 551.333C235.404 551.333 233.84 556.173 231.683 562.714C228.054 573.714 222.742 589.487 220.289 595.233Z" fill="#CC818C"/>
<path d="M458.188 446.755C457.131 448.769 444.976 451.197 444.976 451.197L436.83 452.78C436.83 452.78 423.508 459.346 413.78 459.346L361.388 467.461L354.358 468.552V438.818C354.358 438.818 357.894 439.19 362.902 439.664C374.092 440.646 392.608 441.949 395.171 440.121C398.876 437.481 401.304 427.327 407.538 428.494C413.772 429.662 421.182 438.225 421.182 438.225C421.182 438.225 429.852 442.346 438.311 440.231C446.769 438.115 459.246 444.741 458.188 446.755Z" fill="#CC818C"/>
<path opacity="0.1" d="M363.24 465.159C363.24 465.159 362.487 466.005 361.388 467.452L354.358 468.543V438.817C354.358 438.817 357.894 439.19 362.902 439.664C371.31 446.306 363.24 465.159 363.24 465.159Z" fill="black"/>
<path d="M262.058 458.287L290.2 481.777C294.595 485.443 300.051 487.599 305.763 487.929C314.51 488.445 328.162 489.706 338.076 492.769L342.203 475.524C342.203 475.524 354.045 475.947 356.583 471.928C358.073 469.555 359.733 467.293 361.548 465.158C361.548 465.158 370.117 445.172 360.389 439.037C360.389 439.037 349.605 435.754 347.38 432.792C345.155 429.831 330.15 424.441 325.498 424.754C320.845 425.067 307.1 425.811 307.1 425.811C307.1 425.811 301.703 419.677 299.276 420.311C296.848 420.946 288.381 420.311 288.381 420.311C288.381 420.311 286.055 414.329 283.729 405.757C281.403 397.185 267.556 394.122 267.556 394.122L262.058 458.287Z" fill="#F69E7B"/>
<path opacity="0.1" d="M262.058 458.287L290.2 481.777C294.595 485.443 300.051 487.599 305.763 487.929C314.51 488.445 328.162 489.706 338.076 492.769L342.203 475.524C342.203 475.524 354.045 475.947 356.583 471.928C358.073 469.555 359.733 467.293 361.548 465.158C361.548 465.158 370.117 445.172 360.389 439.037C360.389 439.037 349.605 435.754 347.38 432.792C345.155 429.831 330.15 424.441 325.498 424.754C320.845 425.067 307.1 425.811 307.1 425.811C307.1 425.811 301.703 419.677 299.276 420.311C296.848 420.946 288.381 420.311 288.381 420.311C288.381 420.311 286.055 414.329 283.729 405.757C281.403 397.185 267.556 394.122 267.556 394.122L262.058 458.287Z" fill="#F69E7B"/>
<path d="M249.471 247.692L246.358 248.276H246.164L245.707 248.361L240.378 249.351L238.737 251.297L238.669 251.365L233.4 257.609L228.959 261.967L228.917 262.018L225.161 265.673L218.808 271.994L217.743 274.626L215.425 280.456L214.824 281.937L208.48 288.706L204.429 297.38L194.955 302.88L184.762 297.591L180.11 290.822L181.167 281.125L181.379 279.187L184.483 274.203L187.3 269.667L192.798 261.84L203.371 254.648L205.266 254.149L207.389 253.59C207.552 253.359 207.701 253.119 207.838 252.871C208.017 252.573 208.178 252.265 208.32 251.949C210.697 246.821 209.859 239.197 208.252 232.436C207.02 227.378 205.388 222.426 203.371 217.628L231.285 213.608C231.285 213.608 231.014 219.024 231.014 227.469C231.014 229.584 231.014 231.877 231.074 234.331C231.209 241.947 238.28 245.247 243.618 246.651C244.992 247.018 246.388 247.3 247.796 247.498C248.828 247.658 249.471 247.692 249.471 247.692Z" fill="#CC818C"/>
<path d="M205.486 251.686C205.486 251.686 206.755 246.609 196.605 233.705C186.454 220.801 184.551 199.435 184.551 199.435C184.551 199.435 182.013 188.434 184.551 185.261C187.089 182.088 191.318 147.183 191.318 147.183L198.296 127.51C198.296 127.51 232.342 92.8167 218.174 88.5858C208.548 85.7088 197.027 100.525 190.692 110.307C187.563 115.114 185.54 120.556 184.771 126.241L165.519 178.915C165.519 178.915 163.616 185.261 165.519 196.261C167.422 207.262 171.651 226.724 171.651 226.724L182.436 254.038C182.436 254.038 188.112 271.046 185.168 273.119L191.741 263.397L205.486 251.686Z" fill="#CC818C"/>
<path d="M374.025 300.366C374.025 300.366 370.218 310.52 362.394 309.674C354.57 308.828 316.929 298.039 316.929 298.039C316.929 298.039 301.28 290.212 295.148 290.423C289.015 290.635 260.89 277.519 260.89 277.519C260.89 277.519 258.911 280.126 256.703 282.867C254.301 285.871 251.628 289.044 250.951 289.154C249.683 289.366 230.016 292.116 230.016 292.116L216.694 285.981L215.425 280.456L214.824 277.917L217.777 274.625L221.659 270.301L228.942 261.992L228.984 261.941L238.703 251.373L238.771 251.305L244.996 248.766L246.198 248.276H246.392C247.137 248.149 249.996 247.886 253.827 250.053C256.496 251.564 259.459 252.482 262.514 252.743C268.596 253.177 274.355 255.645 278.865 259.75L310.162 276.225L359.434 293.994C359.434 293.994 363.663 269.667 370.853 274.955C378.043 280.244 374.025 300.366 374.025 300.366Z" fill="#CC818C"/>
<path opacity="0.1" d="M256.703 282.868C254.301 285.872 251.628 289.045 250.951 289.155C249.683 289.366 230.016 292.116 230.016 292.116L216.694 285.982L215.425 280.456L214.824 281.937L208.48 288.706L204.429 297.38L194.955 302.88L184.762 297.591L180.11 290.822L181.167 281.125C181.7 279.974 183.155 276.843 184.483 274.203C185.111 272.748 185.899 271.369 186.835 270.09C187.681 269.532 188.569 263.533 188.569 263.533C192.409 252.456 205.275 250.755 205.275 250.755L207.33 252.685L208.227 253.615C207.863 253.556 208.294 252.769 207.829 252.896C207.085 253.108 206.755 254.233 205.799 254.851C200.597 258.236 192.468 266.13 189.254 269.879C188.476 270.784 187.672 271.673 186.852 272.536C182.208 277.452 183.062 283.968 183.062 283.968C181.903 289.045 192.155 292.853 192.155 292.853C195.014 288.097 214.359 274.981 214.359 274.981L227.386 260.385C231.378 253.429 239.228 248.835 243.609 246.685C245.546 245.738 246.815 245.264 246.815 245.264L251.687 247.345C250.401 247 249.04 247.06 247.788 247.514C247.069 247.737 246.37 248.02 245.699 248.361C245.445 248.488 245.191 248.623 244.954 248.767C243.622 249.541 242.369 250.445 241.215 251.466L230.27 263.423C221.904 272.553 228.206 287.319 240.581 287.53H240.691C248.253 289.273 253.675 285.77 256.703 282.868Z" fill="black"/>
<path opacity="0.1" d="M235.404 551.358C235.404 551.358 233.839 556.198 231.683 562.739C223.41 563.357 209.749 560.159 204.479 558.805L205.596 553.161L235.404 551.358Z" fill="black"/>
<path d="M208.235 253.615L205.528 250.84C205.528 250.84 195.759 252.177 189.694 262.619C189.694 262.619 186.86 270.446 185.989 271.004C185.118 271.563 180.11 282.504 180.11 282.504C180.11 282.504 174.121 300.197 179.121 311.062C184.12 321.927 184.34 326.928 184.34 326.928L188.078 343.005L189.626 357.102L203.059 390.315L215.425 407.94C215.425 407.94 214.266 420.946 211.729 422.749C209.191 424.551 210.35 433.85 210.35 433.85L208.768 458.288C208.768 458.288 203.794 465.582 203.481 477.428C203.168 489.275 201.367 492.659 201.367 492.659C201.367 492.659 200.521 502.602 202.847 507.154C205.173 511.707 199.142 516.462 199.142 516.462L204.327 534.122L202.314 556.546C202.314 556.546 226.21 563.213 235.091 560.463C243.973 557.713 248.625 559.617 248.625 559.617L264.485 495.384L269.983 444.935C269.983 444.935 270.305 409.184 275.059 398.286C279.136 388.978 273.79 355.816 255.426 349.554C251.594 348.251 249.649 343.902 246.375 341.516C243.449 339.392 238.669 334.374 241.013 325.303C244.294 312.611 252.542 292.624 252.542 292.624L258.649 280.456C258.649 280.456 252.009 291.202 239.854 288.452H239.744C227.369 288.232 221.067 273.466 229.433 264.345L240.378 252.38C240.378 252.38 246.409 246.82 250.85 248.225L245.986 246.144C245.986 246.144 232.292 251.221 226.531 261.265L213.505 275.861C213.505 275.861 194.177 288.918 191.318 293.707C191.318 293.707 181.066 289.899 182.225 284.822C182.225 284.822 181.379 278.298 186.014 273.382C186.86 272.536 187.638 271.639 188.417 270.733C192.587 265.859 204.116 252.93 208.235 253.615Z" fill="#F69E7B"/>
<path opacity="0.1" d="M209.825 340.771C209.825 340.771 206.755 363.094 209.081 367.637L209.825 340.771Z" fill="black"/>
<path opacity="0.1" d="M211.83 349.444L215.112 362.247C215.112 362.247 216.271 354.42 211.83 349.444Z" fill="black"/>
<path opacity="0.1" d="M192.375 346.457C192.375 346.457 198.931 379.035 206.121 388.876L192.375 346.457Z" fill="black"/>
<path opacity="0.1" d="M238.585 385.729C238.585 385.729 227.377 396.306 223.038 395.536C223.038 395.536 240.277 396.28 245.665 387.184C245.665 387.209 242.18 384.671 238.585 385.729Z" fill="black"/>
<path opacity="0.1" d="M254.123 384.882C254.123 384.882 239.744 395.349 236.893 396.305C236.893 396.305 252.432 391.863 254.123 384.882Z" fill="black"/>
<path opacity="0.1" d="M205.486 307.136C205.486 307.136 198.296 316.342 194.701 315.284C194.701 315.284 203.481 315.598 205.486 307.136Z" fill="black"/>
<path opacity="0.1" d="M213.632 318.982C213.632 318.982 229.28 297.726 236.682 298.572C236.682 298.572 218.918 314.015 213.632 318.982Z" fill="black"/>
<path opacity="0.1" d="M235.303 311.248C235.303 311.248 225.364 316.232 226.421 317.687C227.479 319.143 235.303 311.248 235.303 311.248Z" fill="black"/>
<path opacity="0.1" d="M242.493 474.467C242.493 474.467 209.293 493.827 206.23 494.775C206.23 494.775 211.94 499.116 217.328 497C222.716 494.885 242.493 474.467 242.493 474.467Z" fill="black"/>
<path opacity="0.1" d="M214.689 514.77C214.689 514.77 201.367 513.39 201.891 517.731C202.416 522.072 214.689 514.77 214.689 514.77Z" fill="black"/>
<path opacity="0.1" d="M231.285 213.608C231.285 213.608 231.014 219.024 231.014 227.469C227.882 230.036 224.186 231.825 220.229 232.687C216.273 233.549 212.168 233.46 208.252 232.427C207.02 227.37 205.388 222.418 203.371 217.619L231.285 213.608Z" fill="black"/>
<path d="M214.791 231.623C228.922 231.623 240.378 220.163 240.378 206.026C240.378 191.89 228.922 180.43 214.791 180.43C200.659 180.43 189.203 191.89 189.203 206.026C189.203 220.163 200.659 231.623 214.791 231.623Z" fill="#CC818C"/>
<path opacity="0.1" d="M221.498 221.647C222.217 232.114 224.417 244.087 233.501 249.351C240.065 253.15 248.338 252.151 255.604 249.985C262.87 247.819 269.983 244.587 277.545 244.223C283.356 243.944 289.1 245.374 294.894 245.737C300.688 246.101 307.032 245.196 311.169 241.117C317.09 235.313 316.007 224.761 310.399 218.66C304.791 212.559 296.019 210.342 287.713 210.57C277.562 210.85 266.228 213.955 258.2 207.795C252.812 203.649 250.774 196.456 246.24 191.388C238.669 182.926 205.19 170.707 198.102 184.5C194.777 190.956 209.885 195.568 213.386 200.239C218.918 207.609 220.839 211.984 221.498 221.647Z" fill="black"/>
<path d="M222.285 220.741C223.012 231.217 225.203 243.19 234.288 248.445C240.852 252.244 249.124 251.246 256.39 249.088C263.656 246.93 270.77 243.689 278.341 243.325C284.143 243.046 289.887 244.468 295.689 244.84C301.492 245.212 307.819 244.299 311.955 240.22C317.876 234.407 316.794 223.863 311.185 217.763C305.577 211.662 296.806 209.445 288.508 209.673C278.357 209.944 267.014 213.058 258.987 206.889C253.599 202.743 251.56 195.559 247.027 190.482C239.456 182.02 205.977 169.81 198.888 183.603C195.564 190.05 210.671 194.662 214.182 199.341C219.705 206.703 221.625 211.069 222.285 220.741Z" fill="#383E56"/>
<path opacity="0.1" d="M191.512 292.844C191.905 289.505 193.005 286.287 194.739 283.407C196.474 280.526 198.802 278.049 201.57 276.141" fill="black"/>
<path opacity="0.1" d="M287.45 425.388C287.372 426.218 287.169 427.031 286.85 427.8C285.741 431.122 284.408 434.365 282.857 437.505C285.116 437.311 286.977 435.534 287.933 433.486C288.768 431.379 289.229 429.143 289.294 426.878C289.378 426.17 289.397 425.456 289.354 424.745C289.294 424.085 288.872 421.564 287.78 422.012C286.901 422.384 287.467 424.72 287.45 425.388Z" fill="black"/>
<path opacity="0.1" d="M313.478 237.572C309.333 241.651 303.006 242.565 297.203 242.192C291.401 241.82 285.632 240.398 279.855 240.686C272.242 241.05 265.187 244.282 257.913 246.448C250.638 248.615 242.374 249.613 235.802 245.814C226.726 240.551 224.527 228.577 223.808 218.11C223.148 208.447 221.219 204.072 215.696 196.702C212.355 192.243 198.482 187.842 200.073 181.852C199.613 182.392 199.216 182.982 198.888 183.612C195.564 190.059 210.671 194.671 214.182 199.35C219.705 206.712 221.625 211.095 222.285 220.75C223.012 231.226 225.203 243.199 234.288 248.454C240.852 252.253 249.124 251.255 256.39 249.097C263.656 246.939 270.77 243.698 278.341 243.335C284.143 243.055 289.887 244.477 295.689 244.849C301.492 245.222 307.819 244.308 311.955 240.229C313.13 239.063 314.064 237.677 314.704 236.151C314.333 236.655 313.923 237.131 313.478 237.572Z" fill="black"/>
<path d="M189.677 314.515L186.573 321.284L196.444 319.312L189.677 314.515Z" fill="#CC818C"/>
<path opacity="0.1" d="M189.677 314.515L187.122 321.284H186.573L189.677 314.515Z" fill="black"/>
<path opacity="0.1" d="M433.946 621.769C453.1 621.769 468.627 619.636 468.627 617.005C468.627 614.374 453.1 612.241 433.946 612.241C414.793 612.241 399.266 614.374 399.266 617.005C399.266 619.636 414.793 621.769 433.946 621.769Z" fill="#383E56"/>
<path opacity="0.1" d="M566.789 635.24C585.943 635.24 601.47 633.107 601.47 630.476C601.47 627.845 585.943 625.712 566.789 625.712C547.636 625.712 532.109 627.845 532.109 630.476C532.109 633.107 547.636 635.24 566.789 635.24Z" fill="#383E56"/>
<path opacity="0.1" d="M723.266 617.005C742.419 617.005 757.946 614.872 757.946 612.241C757.946 609.609 742.419 607.477 723.266 607.477C704.112 607.477 688.585 609.609 688.585 612.241C688.585 614.872 704.112 617.005 723.266 617.005Z" fill="#383E56"/>
<path opacity="0.1" d="M513.618 672.226C527.231 672.226 538.267 670.711 538.267 668.842C538.267 666.972 527.231 665.457 513.618 665.457C500.005 665.457 488.97 666.972 488.97 668.842C488.97 670.711 500.005 672.226 513.618 672.226Z" fill="#383E56"/>
<path opacity="0.1" d="M651.494 668.842C665.107 668.842 676.143 667.326 676.143 665.457C676.143 663.588 665.107 662.072 651.494 662.072C637.881 662.072 626.846 663.588 626.846 665.457C626.846 667.326 637.881 668.842 651.494 668.842Z" fill="#383E56"/>
<path d="M567.542 629.41C567.542 629.41 518.905 469.906 575.155 406.02C617.228 358.228 664.994 363.948 686.386 369.854C691.921 371.329 697.07 373.99 701.475 377.653C705.88 381.316 709.436 385.893 711.897 391.068C719.375 407.213 718.03 433.377 665.239 463.983C576.846 515.176 571.348 585.409 571.348 585.409L567.542 629.41Z" fill="#383E56"/>
<path d="M678.773 392.48C678.773 392.48 535.399 437.328 567.542 629.409" stroke="#EEDAD1" stroke-miterlimit="10"/>
<path d="M595.033 408.559C595.033 408.559 614.767 421.869 608.499 441.864" stroke="#EEDAD1" stroke-miterlimit="10"/>
<path d="M664.394 420.405C664.394 420.405 652.323 408.118 637.63 414.896" stroke="#EEDAD1" stroke-miterlimit="10"/>
<path d="M607.721 482.176C607.721 482.176 586.523 471.412 581.042 484.892" stroke="#EEDAD1" stroke-miterlimit="10"/>
<path d="M555.277 504.599C555.277 504.599 571.188 503.33 571.475 510.945" stroke="#EEDAD1" stroke-miterlimit="10"/>
<path d="M565.613 630.678C565.613 630.678 622.574 514.753 638.222 517.291C645.658 518.493 649.083 525.812 650.631 533.157C652.543 542.665 651.443 552.532 647.485 561.385C639.407 579.925 617.693 615.151 565.613 630.678Z" fill="#383E56"/>
<path d="M637.757 539.292C637.757 539.292 577.972 626.025 566.417 629.833" stroke="#EEDAD1" stroke-miterlimit="10"/>
<path d="M643.255 552.831H629.299" stroke="#EEDAD1" stroke-miterlimit="10"/>
<path d="M626.541 584.562L604.667 585.502" stroke="#EEDAD1" stroke-miterlimit="10"/>
<path d="M613.227 559.177L615.604 570.575" stroke="#EEDAD1" stroke-miterlimit="10"/>
<path d="M589.966 593.87L590.389 604.227" stroke="#EEDAD1" stroke-miterlimit="10"/>
<path d="M567.305 630.678C567.305 630.678 510.345 514.753 494.696 517.291C487.261 518.493 483.835 525.812 482.287 533.157C480.349 542.656 481.42 552.523 485.349 561.385C493.427 579.925 515.141 615.151 567.305 630.678Z" fill="#383E56"/>
<path d="M495.077 539.292C495.077 539.292 554.862 626.025 566.417 629.833" stroke="#EEDAD1" stroke-miterlimit="10"/>
<path d="M489.57 552.831H503.527" stroke="#EEDAD1" stroke-miterlimit="10"/>
<path d="M506.293 584.562L528.167 585.502" stroke="#EEDAD1" stroke-miterlimit="10"/>
<path d="M519.598 559.177L517.23 570.575" stroke="#EEDAD1" stroke-miterlimit="10"/>
<path d="M542.86 593.87L542.437 604.227" stroke="#EEDAD1" stroke-miterlimit="10"/>
<path d="M665.07 657.748C666.625 656.486 667.758 654.78 668.318 652.857C668.733 650.911 667.904 648.584 666.051 647.873C663.971 647.078 661.746 648.516 660.063 649.972C658.379 651.427 656.442 653.094 654.235 652.781C655.369 651.752 656.216 650.446 656.695 648.991C657.174 647.536 657.268 645.982 656.967 644.48C656.876 643.856 656.612 643.27 656.206 642.788C655.055 641.552 652.957 642.085 651.57 643.058C647.172 646.155 645.945 652.129 645.928 657.511C645.48 655.565 645.852 653.543 645.844 651.588C645.835 649.633 645.285 647.357 643.611 646.325C642.576 645.752 641.41 645.46 640.227 645.479C638.248 645.411 636.049 645.605 634.695 647.052C633.003 648.846 633.452 651.867 634.915 653.822C636.378 655.776 638.595 657.037 640.633 658.408C642.277 659.38 643.677 660.714 644.727 662.309C644.852 662.529 644.954 662.762 645.032 663.003H657.424C660.197 661.604 662.77 659.836 665.07 657.748Z" fill="#383E56"/>
<path d="M448.038 611.065C449.591 609.799 450.721 608.09 451.278 606.165C451.701 604.219 450.872 601.934 449.011 601.181C446.93 600.386 444.714 601.824 443.022 603.288C441.33 604.752 439.402 606.402 437.203 606.098C438.336 605.063 439.181 603.752 439.657 602.292C440.133 600.833 440.223 599.276 439.918 597.771C439.823 597.148 439.56 596.563 439.156 596.079C437.998 594.843 435.908 595.368 434.521 596.341C430.123 599.438 428.896 605.412 428.871 610.794C428.431 608.856 428.803 606.834 428.795 604.871C428.786 602.908 428.236 600.64 426.553 599.599C425.515 599.04 424.348 598.766 423.17 598.804C421.199 598.727 418.991 598.922 417.646 600.369C415.954 602.171 416.403 605.184 417.858 607.138C419.312 609.093 421.537 610.354 423.584 611.725C425.222 612.701 426.618 614.035 427.67 615.625C427.796 615.848 427.898 616.083 427.974 616.328H440.375C443.153 614.924 445.731 613.154 448.038 611.065Z" fill="#383E56"/>
<path d="M520.351 657.748C521.906 656.486 523.039 654.78 523.599 652.857C524.014 650.911 523.185 648.584 521.332 647.873C519.252 647.078 517.027 648.516 515.344 649.972C513.66 651.427 511.723 653.094 509.516 652.781C510.651 651.753 511.5 650.447 511.981 648.992C512.461 647.537 512.556 645.983 512.256 644.48C512.165 643.856 511.901 643.27 511.495 642.788C510.345 641.552 508.247 642.085 506.86 643.058C502.461 646.155 501.235 652.129 501.218 657.511C500.769 655.565 501.142 653.543 501.133 651.588C501.125 649.633 500.575 647.357 498.9 646.325C497.866 645.752 496.699 645.46 495.517 645.479C493.537 645.411 491.338 645.605 489.985 647.052C488.293 648.846 488.741 651.867 490.205 653.822C491.668 655.776 493.884 657.037 495.923 658.408C497.566 659.38 498.967 660.714 500.017 662.309C500.141 662.529 500.243 662.762 500.321 663.003H512.713C515.484 661.603 518.053 659.836 520.351 657.748Z" fill="#383E56"/>
<path d="M725.482 563.374C725.482 563.374 730.134 569.45 723.342 578.605C716.55 587.761 710.95 595.529 713.192 601.249C713.192 601.249 723.443 584.207 731.801 583.97C740.158 583.733 734.693 573.621 725.482 563.374Z" fill="#383E56"/>
<path opacity="0.1" d="M725.482 563.374C725.889 563.959 726.208 564.6 726.429 565.278C734.575 574.84 738.906 583.767 731.082 583.995C723.799 584.198 715.061 597.238 712.963 600.53C713.032 600.782 713.114 601.03 713.208 601.274C713.208 601.274 723.46 584.232 731.817 583.995C740.175 583.758 734.693 573.621 725.482 563.374Z" fill="black"/>
<path d="M734.152 571.117C734.152 573.257 733.915 574.992 733.619 574.992C733.323 574.992 733.095 573.232 733.095 571.117C733.095 569.001 733.391 569.991 733.687 569.991C733.983 569.991 734.152 569.001 734.152 571.117Z" fill="#FFD037"/>
<path d="M737.121 573.672C735.243 574.696 733.602 575.314 733.467 575.06C733.332 574.806 734.727 573.757 736.605 572.733C738.483 571.709 737.747 572.453 737.882 572.733C738.018 573.012 739.016 572.648 737.121 573.672Z" fill="#FFD037"/>
<path d="M700.952 563.374C700.952 563.374 696.3 569.45 703.092 578.605C709.884 587.761 715.484 595.529 713.242 601.249C713.242 601.249 702.999 584.207 694.633 583.97C686.268 583.733 691.8 573.621 700.952 563.374Z" fill="#383E56"/>
<path opacity="0.1" d="M700.952 563.374C700.544 563.96 700.222 564.601 699.996 565.278C691.859 574.84 687.528 583.767 695.344 583.995C702.635 584.198 711.415 597.238 713.471 600.53C713.403 600.783 713.318 601.032 713.217 601.274C713.217 601.274 702.973 584.232 694.608 583.995C686.242 583.758 691.8 573.621 700.952 563.374Z" fill="black"/>
<path d="M692.333 571.117C692.333 573.258 692.578 574.993 692.874 574.993C693.17 574.993 693.407 573.258 693.407 571.117C693.407 568.976 693.111 569.992 692.815 569.992C692.519 569.992 692.333 569.002 692.333 571.117Z" fill="#FFD037"/>
<path d="M689.372 573.672C691.25 574.696 692.882 575.314 693.026 575.06C693.17 574.806 691.766 573.757 689.888 572.733C688.01 571.709 688.746 572.453 688.602 572.733C688.458 573.012 687.494 572.648 689.372 573.672Z" fill="#FFD037"/>
<path d="M693.813 600.479C693.813 600.479 706.805 600.081 710.73 597.289C714.655 594.497 730.718 591.171 731.691 595.648C732.663 600.124 751.213 617.893 736.546 618.012C721.879 618.13 702.466 615.727 698.558 613.341C694.65 610.955 693.813 600.479 693.813 600.479Z" fill="#A8A8A8"/>
<path opacity="0.2" d="M736.8 616.455C722.132 616.573 702.711 614.17 698.803 611.784C695.834 609.973 694.642 603.466 694.253 600.462H693.813C693.813 600.462 694.659 610.946 698.55 613.324C702.441 615.702 721.87 618.113 736.537 617.995C740.767 617.995 742.23 616.455 742.154 614.221C741.553 615.583 739.946 616.429 736.8 616.455Z" fill="black"/>
</g>
<defs>
<linearGradient id="paint0_linear" x1="311.465" y1="661.835" x2="311.465" y2="82.0538" gradientUnits="userSpaceOnUse">
<stop stop-color="#808080" stop-opacity="0.25"/>
<stop offset="0.54" stop-color="#808080" stop-opacity="0.12"/>
<stop offset="1" stop-color="#808080" stop-opacity="0.1"/>
</linearGradient>
<clipPath id="clip0">
<rect width="869" height="676" fill="white"/>
</clipPath>
</defs>
</svg>
