<svg width="60" height="20" viewBox="0 0 60 20" fill="none" xmlns="http://www.w3.org/2000/svg">
<path fill-rule="evenodd" clip-rule="evenodd" d="M4.72 19.2533C6.83556 19.2533 8.53333 18.4978 9.81333 16.9867L10.1333 18.9333H13.3067V0H9.30667V3.62667C9.30667 4.49778 9.35111 5.42222 9.44 6.4C8.23111 5.6 6.78222 5.2 5.09333 5.2C3.35111 5.2 2.06667 5.71556 1.24 6.74667C0.413333 7.77778 0 9.57333 0 12.1333C0 14.4978 0.373333 16.2756 1.12 17.4667C1.86667 18.6578 3.06667 19.2533 4.72 19.2533ZM6.32 15.9467C5.50222 15.9467 4.92889 15.6933 4.6 15.1867C4.27111 14.68 4.10667 13.6533 4.10667 12.1067C4.10667 10.4889 4.27556 9.43111 4.61333 8.93333C4.95111 8.43556 5.56444 8.18667 6.45333 8.18667C7.14667 8.18667 8.09778 8.35556 9.30667 8.69333V14.88C8.66667 15.2889 8.14667 15.5689 7.74667 15.72C7.34667 15.8711 6.87111 15.9467 6.32 15.9467ZM20.2933 19.2533C22.2133 19.2533 23.8578 18.4711 25.2267 16.9067L25.6267 18.9333H28.8V10.1067C28.8 8.29333 28.3733 7.02222 27.52 6.29333C26.6667 5.56444 25.3422 5.2 23.5467 5.2C21.3956 5.2 19.0756 5.42222 16.5867 5.86667L16.96 8.56C19.2356 8.41778 21.1111 8.34667 22.5867 8.34667C23.44 8.34667 24.0178 8.46667 24.32 8.70667C24.6222 8.94667 24.7733 9.40444 24.7733 10.08V10.6667H20.0267C18.7467 10.6667 17.7467 10.9644 17.0267 11.56C16.3067 12.1556 15.9467 12.9867 15.9467 14.0533V15.4133C15.9467 16.6222 16.3511 17.5644 17.16 18.24C17.9689 18.9156 19.0133 19.2533 20.2933 19.2533ZM21.4667 16.2667C20.4178 16.2667 19.8933 15.8044 19.8933 14.88V14.3467C19.8933 13.5111 20.32 13.0933 21.1733 13.0933H24.7733V14.96C23.6356 15.8311 22.5333 16.2667 21.4667 16.2667ZM37.5467 19.2267C39.7867 19.2267 41.3644 18.9467 42.28 18.3867C43.1956 17.8267 43.6533 16.7467 43.6533 15.1467C43.6533 14.0089 43.4 13.1556 42.8933 12.5867C42.3867 12.0178 41.5467 11.5733 40.3733 11.2533L36.96 10.32C36.8711 10.3022 36.7422 10.2711 36.5733 10.2267C36.4044 10.1822 36.2844 10.1511 36.2133 10.1333C36.1422 10.1156 36.0489 10.0844 35.9333 10.04C35.8178 9.99556 35.7378 9.96444 35.6933 9.94667C35.6489 9.92889 35.5911 9.89778 35.52 9.85333C35.4489 9.80889 35.4 9.76889 35.3733 9.73333C35.3467 9.69778 35.3156 9.64889 35.28 9.58667C35.2444 9.52444 35.2222 9.45778 35.2133 9.38667C35.2044 9.31556 35.2 9.23556 35.2 9.14667C35.2 8.72 35.3467 8.46222 35.64 8.37333C35.9333 8.28444 36.64 8.24 37.76 8.24C38.9156 8.24 40.6311 8.25778 42.9067 8.29333L43.1733 5.73333C41.1644 5.37778 39.1111 5.2 37.0133 5.2C34.9333 5.18222 33.4667 5.46667 32.6133 6.05333C31.76 6.64 31.3333 7.63556 31.3333 9.04C31.3333 10.1422 31.5644 11.0089 32.0267 11.64C32.4889 12.2711 33.3333 12.7556 34.56 13.0933L37.8933 13.9733C38.5689 14.1511 38.9778 14.2667 39.12 14.32C39.5644 14.4978 39.7867 14.8 39.7867 15.2267C39.7867 15.6533 39.5733 15.9289 39.1467 16.0533C38.72 16.1778 37.8133 16.24 36.4267 16.24C33.9911 16.24 32.4533 16.2133 31.8133 16.16L31.5733 18.7733C33.3867 19.0756 35.3778 19.2267 37.5467 19.2267ZM50.24 18.9333V9.81333C51.7511 8.99556 52.9867 8.58667 53.9467 8.58667C54.4444 8.58667 54.7867 8.69778 54.9733 8.92C55.16 9.14222 55.2533 9.55556 55.2533 10.16V18.9333H59.2267V8.90667C59.2267 7.69778 58.9067 6.77778 58.2667 6.14667C57.6267 5.51556 56.7022 5.2 55.4933 5.2C53.7156 5.2 51.8933 5.93778 50.0267 7.41333C50.1867 6.45333 50.2667 5.52 50.2667 4.61333V0H46.24V18.9333H50.24Z" fill="#EEDAD1"/>
</svg>
