<svg width="16" height="12" viewBox="0 0 16 12" fill="none" xmlns="http://www.w3.org/2000/svg">
<path fill-rule="evenodd" clip-rule="evenodd" d="M15.9844 1.82608C15.9948 1.84755 16 1.86901 16 1.89048V10.1973C16 10.6266 15.8958 11.0344 15.6875 11.4208C15.4792 11.8071 15.1667 12.0003 14.75 12.0003H1.75C1.33333 12.0003 0.937502 11.8071 0.5625 11.4208C0.187498 11.0344 0 10.6266 0 10.1973V1.89048C0 1.86901 0.00520836 1.84755 0.0156251 1.82608C-0.00520836 1.75096 -0.00520836 1.67851 0.0156251 1.60875C0.0364585 1.53899 0.0729165 1.47192 0.125 1.40752C0.135417 1.39679 0.145833 1.38337 0.15625 1.36728C0.166667 1.35118 0.182292 1.33776 0.203125 1.32703C0.359376 1.11238 0.580728 0.948716 0.867188 0.836026C1.15365 0.723336 1.44792 0.666992 1.75 0.666992H14.75C15.0833 0.666992 15.3516 0.739435 15.5547 0.884322C15.7578 1.02921 15.8906 1.24654 15.9531 1.53631C15.974 1.57924 15.987 1.62485 15.9922 1.67315C15.9974 1.72144 15.9948 1.77242 15.9844 1.82608ZM1.51563 1.69747C1.43229 1.69747 1.34896 1.70284 1.26563 1.71357L8 7.25145L14.75 1.69747H1.51563ZM14.75 10.9698C14.8854 10.9698 14.9609 10.8759 14.9766 10.6881C14.9922 10.5003 15 10.3366 15 10.1971V2.82401L8.32812 8.31359C8.27604 8.35652 8.22396 8.38872 8.17188 8.41018C8.11979 8.43165 8.0625 8.44238 8 8.44238C7.9375 8.44238 7.88021 8.43165 7.82813 8.41018C7.77604 8.38872 7.72396 8.35652 7.67188 8.31359L1 2.82401V10.1971C1 10.3366 1.09115 10.5003 1.27344 10.6881C1.45573 10.8759 1.61458 10.9698 1.75 10.9698H14.75Z" fill="#EEDAD1"/>
</svg>
