<svg width="15" height="14" viewBox="0 0 15 14" fill="none" xmlns="http://www.w3.org/2000/svg">
<path fill-rule="evenodd" clip-rule="evenodd" d="M13.5938 0.625H1.40625C0.632812 0.625 0 1.25781 0 2.03125V10C0 10.7734 0.632812 11.4062 1.40625 11.4062H2.57812V13.2109C2.57812 13.3984 2.64844 13.5859 2.78906 13.7266C2.92969 13.8438 3.09375 13.9141 3.28125 13.9141C3.46875 13.9141 3.63281 13.8438 3.75 13.7266L6.28125 11.4062H13.5938C14.3672 11.4062 15 10.7734 15 10V2.03125C15 1.25781 14.3672 0.625 13.5938 0.625ZM14.0625 10C14.0625 10.2578 13.8516 10.4687 13.5938 10.4687H5.90625L3.51562 12.6719V10.4687H1.40625C1.14844 10.4687 0.9375 10.2578 0.9375 10V2.03125C0.9375 1.77344 1.14844 1.5625 1.40625 1.5625H13.5938C13.8516 1.5625 14.0625 1.77344 14.0625 2.03125V10Z" fill="#EEDAD1"/>
</svg>
