<svg width="17" height="17" viewBox="0 0 17 17" fill="none" xmlns="http://www.w3.org/2000/svg">
<path fill-rule="evenodd" clip-rule="evenodd" d="M8.5 0.708008C3.825 0.708008 0 3.92207 0 7.87988C0 10.0314 1.14219 12.0768 3.10781 13.4314C2.94844 13.8299 2.62969 14.5205 1.88594 15.2111C1.64687 15.4236 1.56719 15.7689 1.67344 16.0877C1.80625 16.4064 2.09844 16.5924 2.41719 16.5924C2.44375 16.5924 2.49687 16.5924 2.55 16.5924C4.4625 16.3002 5.97656 15.2643 6.50781 14.8658C6.93281 14.9455 7.75625 15.1049 8.5 15.1049C13.175 15.1049 17 11.8908 17 7.93301C17 3.97519 13.175 0.708008 8.5 0.708008ZM8.5 13.9893C7.62344 13.9893 6.50781 13.7502 6.48125 13.7236L6.21562 13.6705L6.00312 13.8564C5.97656 13.8564 4.80781 14.8658 3.1875 15.3439C4.0375 14.2814 4.22344 13.3518 4.22344 13.2986L4.27656 12.9533L3.98438 12.7674C2.125 11.5721 1.0625 9.81894 1.0625 7.87988C1.0625 4.50645 4.40937 1.77051 8.5 1.77051C12.5906 1.77051 15.9375 4.50645 15.9375 7.87988C15.9375 11.2533 12.5906 13.9893 8.5 13.9893Z" fill="#EEDAD1"/>
</svg>
