<svg width="469" height="502" viewBox="0 0 469 502" fill="none" xmlns="http://www.w3.org/2000/svg">
<g clip-path="url(#clip0)">
<path d="M250.838 436.37C371.213 436.37 468.797 338.685 468.797 218.185C468.797 97.6848 371.213 0 250.838 0C130.463 0 32.8794 97.6848 32.8794 218.185C32.8794 338.685 130.463 436.37 250.838 436.37Z" fill="#4B4A60"/>
<path d="M468.805 413.022C468.805 417.502 367.234 441.779 241.94 441.779C116.646 441.779 15.0747 417.502 15.0747 413.022C15.0747 408.543 116.646 415.972 241.94 415.972C367.234 415.972 468.805 408.543 468.805 413.022Z" fill="#3F3D56"/>
<path opacity="0.1" d="M468.805 413.022C468.805 417.502 367.234 441.779 241.94 441.779C116.646 441.779 15.0747 417.502 15.0747 413.022C15.0747 408.543 116.646 415.972 241.94 415.972C367.234 415.972 468.805 408.543 468.805 413.022Z" fill="black"/>
<path d="M241.94 421.134C367.234 421.134 468.805 417.502 468.805 413.023C468.805 408.543 367.234 404.912 241.94 404.912C116.646 404.912 15.0747 408.543 15.0747 413.023C15.0747 417.502 116.646 421.134 241.94 421.134Z" fill="#3F3D56"/>
<path d="M458.688 410.809V337.812" stroke="#3F3D56" stroke-width="2" stroke-miterlimit="10"/>
<path d="M458.688 348.136C464.383 348.136 469 343.514 469 337.813C469 332.112 464.383 327.49 458.688 327.49C452.993 327.49 448.376 332.112 448.376 337.813C448.376 343.514 452.993 348.136 458.688 348.136Z" fill="#3F3D56"/>
<path d="M458.688 382.803C458.688 382.803 457.215 351.086 427.015 354.773L458.688 382.803Z" fill="#3F3D56"/>
<path d="M41.9849 416.251V176.057" stroke="#3F3D56" stroke-width="2" stroke-miterlimit="10"/>
<path d="M41.9849 186.265C47.6801 186.265 52.297 181.643 52.297 175.942C52.297 170.241 47.6801 165.619 41.9849 165.619C36.2897 165.619 31.6729 170.241 31.6729 175.942C31.6729 181.643 36.2897 186.265 41.9849 186.265Z" fill="#3F3D56"/>
<path d="M10.3121 362.427C16.0073 362.427 20.6241 357.805 20.6241 352.104C20.6241 346.403 16.0073 341.781 10.3121 341.781C4.61687 341.781 0 346.403 0 352.104C0 357.805 4.61687 362.427 10.3121 362.427Z" fill="#3F3D56"/>
<path d="M41.9848 228.671C41.9848 228.671 40.5116 196.953 10.312 200.64L41.9848 228.671Z" fill="#3F3D56"/>
<path d="M41.9848 318.587C41.9848 318.587 40.5116 286.869 10.312 290.556L41.9848 318.587Z" fill="#3F3D56"/>
<path d="M41.9848 413.415C41.9848 413.415 48.614 355.053 10.312 352.104" stroke="#3F3D56" stroke-width="2" stroke-miterlimit="10"/>
<path d="M73.6622 362.427C79.3574 362.427 83.9742 357.805 83.9742 352.104C83.9742 346.403 79.3574 341.781 73.6622 341.781C67.967 341.781 63.3501 346.403 63.3501 352.104C63.3501 357.805 67.967 362.427 73.6622 362.427Z" fill="#3F3D56"/>
<path d="M41.9896 413.415C41.9896 413.415 35.3604 355.053 73.6624 352.104" stroke="#3F3D56" stroke-width="2" stroke-miterlimit="10"/>
<path d="M74.2901 265.595C79.9853 265.595 84.6021 260.973 84.6021 255.272C84.6021 249.571 79.9853 244.949 74.2901 244.949C68.5949 244.949 63.978 249.571 63.978 255.272C63.978 260.973 68.5949 265.595 74.2901 265.595Z" fill="#3F3D56"/>
<path d="M42.6175 316.583C42.6175 316.583 35.9883 258.221 74.2903 255.271" stroke="#3F3D56" stroke-width="2" stroke-miterlimit="10"/>
<path d="M379.373 409.335V263.342" stroke="#3F3D56" stroke-width="2" stroke-miterlimit="10"/>
<path d="M379.373 273.665C385.068 273.665 389.685 269.043 389.685 263.342C389.685 257.641 385.068 253.02 379.373 253.02C373.677 253.02 369.061 257.641 369.061 263.342C369.061 269.043 373.677 273.665 379.373 273.665Z" fill="#3F3D56"/>
<path d="M379.373 305.381C379.373 305.381 380.846 273.664 411.045 277.351L379.373 305.381Z" fill="#3F3D56"/>
<path d="M379.373 406.497C379.373 406.497 372.744 348.135 411.046 345.186" stroke="#3F3D56" stroke-width="2" stroke-miterlimit="10"/>
<path d="M411.045 355.509C416.741 355.509 421.358 350.887 421.358 345.186C421.358 339.485 416.741 334.863 411.045 334.863C405.35 334.863 400.733 339.485 400.733 345.186C400.733 350.887 405.35 355.509 411.045 355.509Z" fill="#3F3D56"/>
<path d="M367.041 152.163C389.242 152.163 407.241 134.146 407.241 111.921C407.241 89.6965 389.242 71.6797 367.041 71.6797C344.839 71.6797 326.841 89.6965 326.841 111.921C326.841 134.146 344.839 152.163 367.041 152.163Z" fill="#3F3D56"/>
<path d="M300.709 391.688C328.114 391.688 350.33 369.449 350.33 342.015C350.33 314.581 328.114 292.342 300.709 292.342C273.303 292.342 251.087 314.581 251.087 342.015C251.087 369.449 273.303 391.688 300.709 391.688Z" fill="#2F2E41"/>
<path d="M308.246 408.035H323.321V380.998H308.246V408.035Z" fill="#2F2E41"/>
<path d="M278.096 408.035H293.171V380.998H278.096V408.035Z" fill="#2F2E41"/>
<path d="M284.849 414.949C290.857 411.476 294.673 406.832 293.373 404.577C292.072 402.321 286.146 403.308 280.138 406.781C274.129 410.253 270.313 414.897 271.614 417.152C272.915 419.408 278.84 418.421 284.849 414.949Z" fill="#2F2E41"/>
<path d="M314.371 414.949C320.379 411.476 324.195 406.832 322.895 404.577C321.594 402.321 315.668 403.308 309.66 406.781C303.651 410.253 299.835 414.897 301.136 417.152C302.437 419.408 308.362 418.421 314.371 414.949Z" fill="#2F2E41"/>
<path d="M299.452 346.415C308.819 346.415 316.412 338.814 316.412 329.438C316.412 320.062 308.819 312.461 299.452 312.461C290.086 312.461 282.493 320.062 282.493 329.438C282.493 338.814 290.086 346.415 299.452 346.415Z" fill="white"/>
<path d="M293.677 327.867C296.799 327.867 299.33 325.333 299.33 322.208C299.33 319.082 296.799 316.549 293.677 316.549C290.554 316.549 288.023 319.082 288.023 322.208C288.023 325.333 290.554 327.867 293.677 327.867Z" fill="#3F3D56"/>
<path d="M348.844 295.82C352.85 277.857 340.042 259.707 320.236 255.28C300.43 250.853 281.126 261.825 277.119 279.788C273.113 297.751 286.239 304.376 306.045 308.803C325.851 313.23 344.837 313.783 348.844 295.82Z" fill="#F69E7B"/>
<path d="M280.043 334.711C281.735 330.753 272.895 323.168 260.298 317.771C247.701 312.373 236.116 311.207 234.424 315.166C232.731 319.125 241.571 326.709 254.168 332.107C266.766 337.504 278.35 338.67 280.043 334.711Z" fill="#2F2E41"/>
<path d="M373.005 368.038C374.698 364.079 365.858 356.494 353.26 351.097C340.663 345.699 329.079 344.533 327.386 348.492C325.693 352.451 334.533 360.036 347.131 365.433C359.728 370.83 371.312 371.996 373.005 368.038Z" fill="#2F2E41"/>
<path d="M310.636 363.707C310.636 366.709 309.445 369.588 307.324 371.71C305.204 373.833 302.328 375.025 299.33 375.025C296.331 375.025 293.455 373.833 291.335 371.71C289.215 369.588 288.023 366.709 288.023 363.707C288.023 357.457 293.085 356.162 299.33 356.162C305.574 356.162 310.636 357.457 310.636 363.707Z" fill="white"/>
<path d="M241.565 327.182V254.186" stroke="#F69E7B" stroke-width="2" stroke-miterlimit="10"/>
<path d="M241.565 264.509C247.261 264.509 251.878 259.887 251.878 254.186C251.878 248.485 247.261 243.863 241.565 243.863C235.87 243.863 231.253 248.485 231.253 254.186C231.253 259.887 235.87 264.509 241.565 264.509Z" fill="#F69E7B"/>
<path d="M241.565 299.174C241.565 299.174 240.092 267.457 209.893 271.144L241.565 299.174Z" fill="#F69E7B"/>
<path d="M144.614 277.202L148.611 286.634H152.152L147.127 262.74C147.127 247.404 139.732 234.445 124.412 234.445H124.412C119.275 234.445 114.348 236.488 110.716 240.124C107.083 243.761 105.042 248.692 105.042 253.835V277.268C105.042 278.498 105.284 279.716 105.755 280.852C106.225 281.988 106.914 283.021 107.783 283.89C108.652 284.76 109.683 285.45 110.818 285.921C111.953 286.391 113.17 286.634 114.399 286.634H141.866L144.614 277.202Z" fill="#2F2E41"/>
<path d="M161.33 372.052C161.33 372.052 213.465 365.765 219.746 377.083C226.027 388.4 221.63 397.832 213.465 403.491C205.299 409.15 160.074 434.93 160.074 434.93L156.305 441.218L148.14 439.96L139.974 432.415L143.743 425.498C143.743 425.498 175.149 406.635 175.777 401.605C175.777 401.605 146.884 414.809 143.743 412.294C140.602 409.779 105.427 397.832 111.081 390.916C116.734 383.999 131.181 373.939 131.181 373.939L161.33 372.052Z" fill="#2F2E41"/>
<path opacity="0.1" d="M161.33 372.052C161.33 372.052 213.465 365.765 219.746 377.083C226.027 388.4 221.63 397.832 213.465 403.491C205.299 409.15 160.074 434.93 160.074 434.93L156.305 441.218L148.14 439.96L139.974 432.415L143.743 425.498C143.743 425.498 175.149 406.635 175.777 401.605C175.777 401.605 146.884 414.809 143.743 412.294C140.602 409.779 105.427 397.832 111.081 390.916C116.734 383.999 131.181 373.939 131.181 373.939L161.33 372.052Z" fill="black"/>
<path d="M154.421 435.56C154.421 435.56 163.843 433.674 161.958 439.962C160.074 446.249 158.818 458.825 161.958 461.969C165.099 465.113 175.149 478.946 165.099 480.203C155.049 481.461 144.371 468.885 144.371 468.885C144.371 468.885 137.462 448.765 132.437 446.878C127.412 444.992 122.387 437.447 124.899 435.56C127.412 433.674 142.487 421.727 143.743 422.356C144.999 422.985 144.371 429.901 144.371 429.901C144.371 429.901 149.396 438.075 154.421 435.56Z" fill="#2F2E41"/>
<path d="M155.363 301.316L178.604 317.664C178.604 317.664 196.191 299.43 196.191 288.74C196.191 278.051 205.613 257.93 210.01 266.105C214.407 274.279 204.985 293.771 204.985 293.771L187.398 335.27C187.398 335.27 177.348 337.156 171.695 332.755C166.041 328.353 150.338 319.55 150.338 319.55L155.363 301.316Z" fill="#FFB9B9"/>
<path d="M132.437 273.963C142.15 273.963 150.024 266.081 150.024 256.358C150.024 246.634 142.15 238.752 132.437 238.752C122.724 238.752 114.85 246.634 114.85 256.358C114.85 266.081 122.724 273.963 132.437 273.963Z" fill="#FFB9B9"/>
<path d="M141.545 268.619C141.545 268.619 135.263 284.967 137.776 288.739C140.288 292.512 143.429 292.512 145.942 293.77C147.198 294.398 160.388 299.429 160.388 303.201C160.328 305.625 159.681 307.999 158.504 310.118L156.62 320.807L140.917 330.867L120.189 328.352L104.485 319.549C104.485 319.549 101.973 296.285 108.882 292.512C115.792 288.739 123.957 279.937 123.329 276.793C122.701 273.649 122.073 266.104 122.073 266.104L141.545 268.619Z" fill="#FFB9B9"/>
<path d="M167.926 307.604C167.926 307.604 158.504 317.036 158.504 318.293C158.504 319.551 164.785 325.21 160.388 332.755C155.991 340.3 155.991 359.164 155.991 359.164L140.916 362.308L112.651 359.792L108.254 316.407C108.254 316.407 119.56 318.293 122.073 320.18C124.585 322.066 131.494 317.665 136.519 317.665C141.544 317.665 155.991 315.149 155.991 315.149L154.735 310.119L159.76 301.316L167.926 307.604Z" fill="#F69E7B"/>
<path d="M132.437 374.567C132.437 374.567 195.877 346.272 200.902 364.507C205.927 382.741 206.555 426.756 206.555 426.756C206.555 426.756 209.696 456.937 213.465 460.081C217.233 463.225 213.465 472.656 213.465 472.656L204.043 475.8L195.249 472.028L191.48 461.967C191.48 461.967 190.224 439.331 185.199 428.013C180.174 416.695 180.174 390.287 180.802 389.029C180.802 389.029 156.305 419.21 132.437 417.324C108.568 415.438 105.113 410.093 105.113 410.093C105.113 410.093 116.734 374.567 132.437 374.567Z" fill="#2F2E41"/>
<path d="M209.696 463.225C209.696 463.225 212.208 454.422 217.861 461.339C223.514 468.255 249.268 478.944 249.896 480.202C250.524 481.459 261.83 488.376 248.639 497.808C235.449 507.239 217.861 497.808 217.861 497.808C217.861 497.808 202.786 492.777 199.018 493.406C195.249 494.035 187.711 490.262 187.083 487.118C186.455 483.975 187.939 456.336 191.28 459.152C194.621 461.967 198.39 469.513 198.39 469.513C198.39 469.513 210.952 472.657 209.696 463.225Z" fill="#2F2E41"/>
<path d="M153.793 357.59C153.793 357.59 157.248 357.276 156.619 365.45C156.619 365.45 134.949 372.052 131.18 377.711C127.412 383.37 111.081 400.347 108.568 412.294C108.568 412.294 90.3525 407.892 100.402 376.454L112.219 350.809C112.219 350.809 119.246 365.136 153.793 357.59Z" fill="#2F2E41"/>
<path d="M139.008 372.874L117.676 363.565C117.676 363.565 107.626 342.816 107.626 332.755C107.504 326.966 107.058 321.189 106.291 315.45C105.816 311.841 106.23 308.17 107.496 304.757C108.762 301.344 110.843 298.292 113.556 295.868C115.774 293.926 118.265 292.514 120.816 292.514C120.816 292.514 128.354 306.347 127.098 318.922C125.841 331.498 128.982 350.361 128.982 350.361L157.365 365.567" fill="#FFB9B9"/>
<path opacity="0.1" d="M139.009 372.873L117.676 363.564C117.676 363.564 107.626 342.814 107.626 332.754C107.626 327.514 129.61 312.004 128.354 324.58C127.098 337.156 128.982 350.36 128.982 350.36L157.365 365.566" fill="black"/>
<path d="M128.982 323.322L126.979 331.811L115.791 337.155H106.37L101.973 317.035C101.973 317.035 109.736 315.391 113.706 317.47C117.676 319.55 126.998 320.047 126.998 320.047L128.982 323.322Z" fill="#F69E7B"/>
<path d="M139.403 235.286C135.995 234.422 127.915 234.445 126.733 234.445C123.884 234.445 121.064 235.007 118.432 236.098C115.801 237.189 113.41 238.789 111.395 240.805C109.381 242.821 107.784 245.215 106.694 247.849C105.604 250.483 105.043 253.307 105.043 256.158L96.877 286.634H112.771L115.721 275.316L119.908 286.634H127.909L128.597 279.833L131.305 286.634H140.217C133.543 271.515 129.992 257.735 138.761 249.229C144.683 250.037 149.677 248.449 150.491 245.235C151.429 241.532 146.464 237.078 139.403 235.286Z" fill="#2F2E41"/>
</g>
<defs>
<clipPath id="clip0">
<rect width="469" height="502" fill="white"/>
</clipPath>
</defs>
</svg>
