<svg width="116" height="27" viewBox="0 0 116 27" fill="none" xmlns="http://www.w3.org/2000/svg">
<path d="M36.54 13.04C37 13.04 37.33 13.14 37.53 13.34C37.75 13.54 37.86 13.8 37.86 14.12C37.86 14.64 37.7 15.1 37.38 15.5C37.08 15.9 36.6 16.11 35.94 16.13C34.36 16.15 32.94 16.03 31.68 15.77C30.28 18.75 28.59 21.23 26.61 23.21C24.65 25.17 22.71 26.15 20.79 26.15C19.03 26.15 17.71 25.22 16.83 23.36C15.95 21.48 15.45 18.97 15.33 15.83C14.13 19.31 12.77 21.9 11.25 23.6C9.75 25.3 8.15 26.15 6.45 26.15C4.53 26.15 3.08 24.96 2.1 22.58C1.12 20.18 0.63 16.96 0.63 12.92C0.63 9.98 0.89 6.75 1.41 3.23C1.55 2.23 1.8 1.54 2.16 1.16C2.54 0.759998 3.13 0.559999 3.93 0.559999C4.53 0.559999 4.99 0.689999 5.31 0.949999C5.65 1.21 5.82 1.69 5.82 2.39C5.82 2.53 5.8 2.8 5.76 3.2C5.16 7.3 4.86 10.79 4.86 13.67C4.86 16.35 5.09 18.42 5.55 19.88C6.01 21.34 6.63 22.07 7.41 22.07C8.11 22.07 8.95 21.34 9.93 19.88C10.93 18.4 11.92 16.22 12.9 13.34C13.88 10.44 14.71 6.99 15.39 2.99C15.55 2.07 15.84 1.44 16.26 1.1C16.7 0.739999 17.29 0.559999 18.03 0.559999C18.65 0.559999 19.1 0.699998 19.38 0.979998C19.68 1.24 19.83 1.64 19.83 2.18C19.83 2.5 19.81 2.75 19.77 2.93C19.21 6.19 18.93 9.45 18.93 12.71C18.93 14.93 19 16.7 19.14 18.02C19.3 19.34 19.59 20.35 20.01 21.05C20.45 21.73 21.08 22.07 21.9 22.07C22.86 22.07 23.93 21.35 25.11 19.91C26.29 18.45 27.37 16.64 28.35 14.48C27.13 13.72 26.21 12.74 25.59 11.54C24.97 10.32 24.66 8.92 24.66 7.34C24.66 5.76 24.9 4.43 25.38 3.35C25.88 2.25 26.55 1.43 27.39 0.89C28.25 0.349999 29.2 0.0799993 30.24 0.0799993C31.52 0.0799993 32.53 0.539999 33.27 1.46C34.03 2.38 34.41 3.64 34.41 5.24C34.41 7.5 33.92 10.01 32.94 12.77C33.96 12.95 35.16 13.04 36.54 13.04ZM27.69 7.13C27.69 9.09 28.32 10.54 29.58 11.48C30.36 9.24 30.75 7.39 30.75 5.93C30.75 5.09 30.64 4.48 30.42 4.1C30.2 3.7 29.9 3.5 29.52 3.5C28.98 3.5 28.54 3.82 28.2 4.46C27.86 5.08 27.69 5.97 27.69 7.13ZM45.6839 20.21C45.9439 20.21 46.1439 20.33 46.2839 20.57C46.4439 20.81 46.5239 21.14 46.5239 21.56C46.5239 22.28 46.3539 22.9 46.0139 23.42C45.4539 24.28 44.7139 24.95 43.7939 25.43C42.8939 25.91 41.8139 26.15 40.5539 26.15C38.6339 26.15 37.1439 25.58 36.0839 24.44C35.0239 23.28 34.4939 21.72 34.4939 19.76C34.4939 18.38 34.7839 17.1 35.3639 15.92C35.9439 14.72 36.7439 13.77 37.7639 13.07C38.8039 12.37 39.9739 12.02 41.2739 12.02C42.4339 12.02 43.3639 12.37 44.0639 13.07C44.7639 13.75 45.1139 14.68 45.1139 15.86C45.1139 17.24 44.6139 18.43 43.6139 19.43C42.6339 20.41 40.9539 21.19 38.5739 21.77C39.0539 22.69 39.8639 23.15 41.0039 23.15C41.8239 23.15 42.4939 22.96 43.0139 22.58C43.5539 22.2 44.1739 21.56 44.8739 20.66C45.1139 20.36 45.3839 20.21 45.6839 20.21ZM40.7639 14.96C40.0239 14.96 39.3939 15.39 38.8739 16.25C38.3739 17.11 38.1239 18.15 38.1239 19.37V19.43C39.3039 19.15 40.2339 18.73 40.9139 18.17C41.5939 17.61 41.9339 16.96 41.9339 16.22C41.9339 15.84 41.8239 15.54 41.6039 15.32C41.4039 15.08 41.1239 14.96 40.7639 14.96ZM67.3673 26.15C64.9873 26.15 62.9173 25.72 61.1573 24.86C59.3973 23.98 58.0473 22.74 57.1073 21.14C56.1673 19.54 55.6973 17.68 55.6973 15.56C55.6973 12.62 56.2473 10.01 57.3473 7.73C58.4673 5.45 59.9773 3.69 61.8773 2.45C63.7773 1.19 65.8873 0.559999 68.2073 0.559999C70.3673 0.559999 72.0073 1.12 73.1273 2.24C74.2473 3.34 74.8073 4.8 74.8073 6.62C74.8073 7.84 74.5873 8.82 74.1473 9.56C73.7273 10.3 73.1173 10.67 72.3173 10.67C71.7573 10.67 71.3173 10.54 70.9973 10.28C70.6773 10.02 70.5173 9.64 70.5173 9.14C70.5173 8.96 70.5573 8.63 70.6373 8.15C70.7573 7.55 70.8173 7.07 70.8173 6.71C70.8173 4.89 69.8473 3.98 67.9073 3.98C66.5873 3.98 65.3273 4.41 64.1273 5.27C62.9273 6.13 61.9573 7.4 61.2173 9.08C60.4773 10.74 60.1073 12.72 60.1073 15.02C60.1073 17.42 60.7773 19.28 62.1173 20.6C63.4573 21.9 65.4373 22.55 68.0573 22.55C69.3573 22.55 70.6673 22.39 71.9873 22.07C73.3273 21.73 74.8073 21.22 76.4273 20.54C76.7273 20.42 76.9773 20.36 77.1773 20.36C77.4973 20.36 77.7373 20.48 77.8973 20.72C78.0573 20.96 78.1373 21.27 78.1373 21.65C78.1373 22.87 77.4773 23.77 76.1573 24.35C74.7373 24.97 73.2573 25.43 71.7173 25.73C70.1973 26.01 68.7473 26.15 67.3673 26.15ZM79.4738 26.15C78.2338 26.15 77.2438 25.7 76.5038 24.8C75.7638 23.9 75.3938 22.72 75.3938 21.26C75.3938 19.66 75.7638 18.15 76.5038 16.73C77.2438 15.29 78.2238 14.14 79.4438 13.28C80.6838 12.4 81.9938 11.96 83.3738 11.96C83.8138 11.96 84.1038 12.05 84.2438 12.23C84.4038 12.39 84.5338 12.69 84.6338 13.13C85.0538 13.05 85.4938 13.01 85.9538 13.01C86.9338 13.01 87.4238 13.36 87.4238 14.06C87.4238 14.48 87.2738 15.48 86.9738 17.06C86.5138 19.36 86.2838 20.96 86.2838 21.86C86.2838 22.16 86.3538 22.4 86.4938 22.58C86.6538 22.76 86.8538 22.85 87.0938 22.85C87.4738 22.85 87.9338 22.61 88.4738 22.13C89.0138 21.63 89.7438 20.83 90.6638 19.73C90.9038 19.45 91.1738 19.31 91.4738 19.31C91.7338 19.31 91.9338 19.43 92.0738 19.67C92.2338 19.91 92.3138 20.24 92.3138 20.66C92.3138 21.46 92.1238 22.08 91.7438 22.52C90.9238 23.54 90.0538 24.4 89.1338 25.1C88.2138 25.8 87.3238 26.15 86.4638 26.15C85.8038 26.15 85.1938 25.93 84.6338 25.49C84.0938 25.03 83.6838 24.41 83.4038 23.63C82.3638 25.31 81.0538 26.15 79.4738 26.15ZM80.5538 23.12C80.9938 23.12 81.4138 22.86 81.8138 22.34C82.2138 21.82 82.5038 21.13 82.6838 20.27L83.7938 14.75C82.9538 14.77 82.1738 15.09 81.4538 15.71C80.7538 16.31 80.1938 17.11 79.7738 18.11C79.3538 19.11 79.1438 20.17 79.1438 21.29C79.1438 21.91 79.2638 22.37 79.5038 22.67C79.7638 22.97 80.1138 23.12 80.5538 23.12ZM92.0055 26.15C91.2455 26.15 90.7055 25.75 90.3855 24.95C90.0855 24.15 89.9355 22.87 89.9355 21.11C89.9355 18.51 90.3055 16.04 91.0455 13.7C91.2255 13.12 91.5155 12.7 91.9155 12.44C92.3355 12.16 92.9155 12.02 93.6555 12.02C94.0555 12.02 94.3355 12.07 94.4955 12.17C94.6555 12.27 94.7355 12.46 94.7355 12.74C94.7355 13.06 94.5855 13.78 94.2855 14.9C94.0855 15.7 93.9255 16.4 93.8055 17C93.6855 17.6 93.5855 18.34 93.5055 19.22C94.1655 17.5 94.9055 16.1 95.7255 15.02C96.5455 13.94 97.3455 13.17 98.1255 12.71C98.9255 12.25 99.6555 12.02 100.316 12.02C101.616 12.02 102.266 12.67 102.266 13.97C102.266 14.23 102.176 14.86 101.996 15.86C101.836 16.66 101.756 17.16 101.756 17.36C101.756 18.06 102.006 18.41 102.506 18.41C103.066 18.41 103.786 17.97 104.666 17.09C104.926 16.83 105.196 16.7 105.476 16.7C105.736 16.7 105.936 16.82 106.076 17.06C106.236 17.28 106.316 17.58 106.316 17.96C106.316 18.7 106.116 19.28 105.716 19.7C105.156 20.28 104.496 20.78 103.736 21.2C102.996 21.6 102.206 21.8 101.366 21.8C100.306 21.8 99.4955 21.53 98.9355 20.99C98.3955 20.45 98.1255 19.72 98.1255 18.8C98.1255 18.5 98.1555 18.2 98.2155 17.9C98.2555 17.5 98.2755 17.23 98.2755 17.09C98.2755 16.77 98.1655 16.61 97.9455 16.61C97.6455 16.61 97.2455 16.95 96.7455 17.63C96.2655 18.29 95.7855 19.17 95.3055 20.27C94.8255 21.37 94.4355 22.53 94.1355 23.75C93.9155 24.69 93.6555 25.33 93.3555 25.67C93.0755 25.99 92.6255 26.15 92.0055 26.15ZM114.268 20.21C114.528 20.21 114.728 20.33 114.868 20.57C115.028 20.81 115.108 21.14 115.108 21.56C115.108 22.28 114.938 22.9 114.598 23.42C114.038 24.28 113.298 24.95 112.378 25.43C111.478 25.91 110.398 26.15 109.138 26.15C107.218 26.15 105.728 25.58 104.668 24.44C103.608 23.28 103.078 21.72 103.078 19.76C103.078 18.38 103.368 17.1 103.948 15.92C104.528 14.72 105.328 13.77 106.348 13.07C107.388 12.37 108.558 12.02 109.858 12.02C111.018 12.02 111.948 12.37 112.648 13.07C113.348 13.75 113.698 14.68 113.698 15.86C113.698 17.24 113.198 18.43 112.198 19.43C111.218 20.41 109.538 21.19 107.158 21.77C107.638 22.69 108.448 23.15 109.588 23.15C110.408 23.15 111.078 22.96 111.598 22.58C112.138 22.2 112.758 21.56 113.458 20.66C113.698 20.36 113.968 20.21 114.268 20.21ZM109.348 14.96C108.608 14.96 107.978 15.39 107.458 16.25C106.958 17.11 106.708 18.15 106.708 19.37V19.43C107.888 19.15 108.818 18.73 109.498 18.17C110.178 17.61 110.518 16.96 110.518 16.22C110.518 15.84 110.408 15.54 110.188 15.32C109.988 15.08 109.708 14.96 109.348 14.96Z" fill="#383E56"/>
</svg>
